<svg xmlns="http://www.w3.org/2000/svg" viewBox="0 0 51.37 23.46"><defs><style>.cls-1{fill:#231f20;stroke:#231f20;stroke-width:0.25px;}.cls-2{fill:#d51c29;}</style></defs><title>Tandem Auto Creations</title><g id="Layer_2" data-name="Layer 2"><g id="Layer_2-2" data-name="Layer 2"><path class="cls-1" d="M5.35,5.51H.74A.61.61,0,0,1,.13,4.9V1.38A.61.61,0,0,1,.74.77H15.05a.61.61,0,0,1,.61.61V4.9a.61.61,0,0,1-.61.61H10.44V22.72a.63.63,0,0,1-.61.61H6a.63.63,0,0,1-.61-.61Z"/><path class="cls-2" d="M31.92,18.44,33.8,22.5a.56.56,0,0,1-.54.83H29.68c-.58,0-.84-.19-1.13-.8L27.39,20Z"/><path class="cls-2" d="M25.46,15.6,23,10.28h0L20.56,15.6,18.62,20l-1.16,2.58a1.19,1.19,0,0,1-1.16.77H12.75a.56.56,0,0,1-.54-.83L22.3.8a.64.64,0,0,1,.54-.35h.33a.64.64,0,0,1,.54.35l6.17,13.26Z"/><path class="cls-1" d="M43.23.13a10.83,10.83,0,0,1,7.8,3,.61.61,0,0,1,0,.91L48.54,6.64a.57.57,0,0,1-.8,0A6.55,6.55,0,0,0,43.39,5a6.42,6.42,0,0,0-6.32,6.64,6.39,6.39,0,0,0,6.35,6.55,6.83,6.83,0,0,0,4.32-1.55.65.65,0,0,1,.84,0l2.51,2.68a.64.64,0,0,1,0,.87,11,11,0,0,1-7.83,3.12,11.6,11.6,0,1,1,0-23.2Z"/></g></g></svg>