<svg xmlns="http://www.w3.org/2000/svg" viewBox="0 0 105.95 32.02"><defs><style>.cls-1{fill:#231f20}.cls-2{fill:#d51c29}</style></defs><g id="Layer_2" data-name="Layer 2"><g id="Layer_2-2" data-name="Layer 2"><path class="cls-1" d="M0 31.62l4-7.5a.23.23 0 01.19-.12h.13a.26.26 0 01.21.12l4 7.5c.08.14 0 .29-.21.29H6.86a.44.44 0 01-.44-.28L6 30.75H2.54l-.46.89a.47.47 0 01-.45.27H.24c-.19 0-.24-.15-.24-.29zm5.18-2.39l-1-1.83-1 1.83zM9.23 24.32a.24.24 0 01.25-.21H11a.23.23 0 01.24.21v4.51a1.46 1.46 0 001.55 1.41 1.48 1.48 0 001.58-1.41v-4.51a.23.23 0 01.24-.21h1.55a.24.24 0 01.24.21v4.6A3.39 3.39 0 0112.82 32a3.38 3.38 0 01-3.59-3.1zM19.59 25.75h-1.8a.23.23 0 01-.24-.21v-1.22a.23.23 0 01.24-.21h5.6a.23.23 0 01.24.21v1.22a.23.23 0 01-.24.21h-1.8v5.95a.24.24 0 01-.24.21h-1.52a.24.24 0 01-.24-.21zM28.73 24a4.29 4.29 0 014.54 4 4.27 4.27 0 01-4.54 4 4.26 4.26 0 01-4.53-4 4.27 4.27 0 014.53-4zm0 6.24A2.4 2.4 0 0031.25 28a2.53 2.53 0 00-5 0 2.39 2.39 0 002.48 2.24zM41.49 24a4.57 4.57 0 013.06 1 .2.2 0 010 .32l-1 .9a.24.24 0 01-.32 0 2.76 2.76 0 00-1.7-.57 2.29 2.29 0 100 4.56 2.86 2.86 0 001.69-.54.3.3 0 01.33 0l1 .93a.2.2 0 010 .3 4.68 4.68 0 01-3.06 1.1 4.28 4.28 0 01-4.55-4 4.3 4.3 0 014.55-4zM46.07 24.32a.23.23 0 01.24-.21h3.78a2.6 2.6 0 012.75 2.41A2.5 2.5 0 0151 28.76l1.73 2.82c.09.15 0 .33-.22.33h-1.7a.26.26 0 01-.21-.1l-1.67-2.95h-.88v2.84a.23.23 0 01-.24.21h-1.5a.23.23 0 01-.24-.21zm3.85 3.12a1 1 0 001-.89.92.92 0 00-1-.85h-1.87v1.74zM54.53 24.32a.23.23 0 01.24-.21H60a.23.23 0 01.24.21v1.22a.23.23 0 01-.24.21h-3.5v1.38h2.88a.23.23 0 01.24.21v1.21a.23.23 0 01-.24.22h-2.89v1.5H60a.23.23 0 01.24.21v1.22a.23.23 0 01-.24.21h-5.23a.23.23 0 01-.24-.21zM60.78 31.62l4-7.5A.26.26 0 0165 24h.12a.26.26 0 01.22.12l3.95 7.5c.07.14 0 .29-.22.29h-1.4a.42.42 0 01-.44-.28l-.45-.88h-3.49l-.45.89a.47.47 0 01-.45.27H61c-.19 0-.29-.15-.22-.29zM66 29.23l-1-1.83-1 1.83zM71 25.75h-1.8a.23.23 0 01-.24-.21v-1.22a.23.23 0 01.24-.21h5.6a.23.23 0 01.24.21v1.22a.23.23 0 01-.24.21H73v5.95a.24.24 0 01-.24.21h-1.57a.24.24 0 01-.19-.21zM76.25 24.32a.23.23 0 01.24-.21H78a.23.23 0 01.24.21v7.38a.23.23 0 01-.24.21h-1.51a.23.23 0 01-.24-.21zM84.3 24a4.29 4.29 0 014.54 4 4.57 4.57 0 01-9.07 0 4.28 4.28 0 014.53-4zm0 6.24A2.4 2.4 0 0086.82 28a2.53 2.53 0 00-5 0 2.39 2.39 0 002.48 2.24zM90.35 24.2a.23.23 0 01.24-.2h.32l5 4.28v-4a.23.23 0 01.24-.21h1.51a.23.23 0 01.24.21v7.5a.22.22 0 01-.24.2h-.2a.28.28 0 01-.16-.06l-5-4.42v4.2a.23.23 0 01-.24.21h-1.5a.23.23 0 01-.24-.21zM99.61 30.85l.6-.93a.36.36 0 01.43-.06 4.1 4.1 0 001.79.61c.5 0 .87-.28.87-.67s-.44-.82-1.3-1.12c-1.09-.38-2.45-1.13-2.45-2.46 0-1.11 1-2.22 2.92-2.22a5.14 5.14 0 012.7.83.26.26 0 01.07.36l-.64.86c-.09.12-.32.22-.43.14a4.25 4.25 0 00-1.81-.67c-.45 0-.79.27-.79.57s.38.73 1.38 1.08 2.54 1 2.54 2.54c0 1.15-1.12 2.31-3 2.31a4.3 4.3 0 01-2.84-.86c-.1-.11-.14-.16-.04-.31zM4.33 1.41h-4C.06 1.41 0 1.26 0 1V.65A.29.29 0 01.28.32H9.4a.3.3 0 01.28.33v.43a.3.3 0 01-.28.33H5.33v16.37a.32.32 0 01-.34.33H4.6a.31.31 0 01-.27-.33zM33.59.39a.31.31 0 01.31-.33h.37L44.45 16V.65a.31.31 0 01.28-.33h.42a.31.31 0 01.28.33V18a.32.32 0 01-.34.33h-.28s-.19-.07-10.27-16v15.45a.31.31 0 01-.27.33h-.41a.31.31 0 01-.27-.33zM54.19.65a.31.31 0 01.25-.33h4.5c4.12 0 7.47 4 7.47 8.87s-3.35 8.92-7.47 8.92h-4.5a.31.31 0 01-.25-.33zM58.77 17c3.71 0 6.58-3.38 6.58-7.83s-2.87-7.78-6.58-7.78h-3.58V17zM74.09.65a.31.31 0 01.28-.33h8.5a.31.31 0 01.28.33v.43a.31.31 0 01-.28.33h-7.76v7h6.72a.32.32 0 01.28.34v.43a.31.31 0 01-.28.33h-6.72V17h7.76a.31.31 0 01.28.33v.41a.31.31 0 01-.28.33h-8.5a.31.31 0 01-.28-.33zM92.85.24A.21.21 0 0193 .06h.23c.11 0 .17.05.21.18l4.37 15.61h.05L102.29.24c0-.13.1-.18.21-.18h.23a.21.21 0 01.19.18l3 17.54c0 .25 0 .33-.24.33h-.51c-.12 0-.23-.13-.25-.28l-2.4-14.89-4.31 15.22a.28.28 0 01-.29.2h-.09a.24.24 0 01-.27-.2L93.27 2.94l-2.4 14.89a.3.3 0 01-.26.28h-.5c-.2 0-.28-.08-.24-.33z"/><path class="cls-2" d="M27.6 14.48l1.53 3.27a.46.46 0 01-.44.68h-2.9c-.47 0-.68-.16-.92-.65l-.94-2.05zM22.36 12.2l-2-4.28-2 4.28-1.57 3.53-.94 2.07a1 1 0 01-1 .63h-2.79a.46.46 0 01-.45-.68L19.8.29a.53.53 0 01.44-.29h.26a.53.53 0 01.5.29L26 11z"/></g></g></svg>