<svg xmlns="http://www.w3.org/2000/svg" viewBox="0 0 51.37 23.46"><defs><style>.cls-1{fill:#231f20;stroke:#231f20;stroke-width:.25px}.cls-2{fill:#d51c29}</style></defs><g id="Layer_2" data-name="Layer 2"><g id="Layer_2-2" data-name="Layer 2"><path class="cls-1" d="M5.35 5.51H.74a.61.61 0 01-.61-.61V1.38A.61.61 0 01.74.77h14.31a.61.61 0 01.61.61V4.9a.61.61 0 01-.61.61h-4.61v17.21a.63.63 0 01-.61.61H6a.63.63 0 01-.61-.61z"/><path class="cls-2" d="M31.92 18.44l1.88 4.06a.56.56 0 01-.54.83h-3.58c-.58 0-.84-.19-1.13-.8L27.39 20zM25.46 15.6L23 10.28l-2.44 5.32-1.94 4.4-1.16 2.58a1.19 1.19 0 01-1.16.77h-3.55a.56.56 0 01-.54-.83L22.3.8a.64.64 0 01.54-.35h.33a.64.64 0 01.54.35l6.17 13.26z"/><path class="cls-1" d="M43.23.13a10.83 10.83 0 017.8 3 .61.61 0 010 .91l-2.49 2.6a.57.57 0 01-.8 0A6.55 6.55 0 0043.39 5a6.42 6.42 0 00-6.32 6.64 6.39 6.39 0 006.35 6.55 6.83 6.83 0 004.32-1.55.65.65 0 01.84 0l2.51 2.68a.64.64 0 010 .87 11 11 0 01-7.83 3.12 11.6 11.6 0 110-23.2z"/></g></g></svg>