<svg xmlns="http://www.w3.org/2000/svg" viewBox="0 0 105.95 32.02"><defs><style>.cls-1{fill:#231f20;}.cls-2{fill:#d51c29;}</style></defs><title>Asset 1</title><g id="Layer_2" data-name="Layer 2"><g id="Layer_2-2" data-name="Layer 2"><path class="cls-1" d="M0,31.62l4-7.5A.23.23,0,0,1,4.19,24h.13a.26.26,0,0,1,.21.12l4,7.5c.08.14,0,.29-.21.29H6.86a.44.44,0,0,1-.44-.28L6,30.75H2.54l-.46.89a.47.47,0,0,1-.45.27H.24C.05,31.91,0,31.76,0,31.62Zm5.18-2.39-1-1.83h0l-1,1.83Z"/><path class="cls-1" d="M9.23,24.32a.24.24,0,0,1,.25-.21H11a.23.23,0,0,1,.24.21v4.51a1.46,1.46,0,0,0,1.55,1.41,1.48,1.48,0,0,0,1.58-1.41V24.32a.23.23,0,0,1,.24-.21h1.55a.24.24,0,0,1,.24.21v4.6A3.39,3.39,0,0,1,12.82,32a3.38,3.38,0,0,1-3.59-3.1Z"/><path class="cls-1" d="M19.59,25.75h-1.8a.23.23,0,0,1-.24-.21V24.32a.23.23,0,0,1,.24-.21h5.6a.23.23,0,0,1,.24.21v1.22a.23.23,0,0,1-.24.21h-1.8V31.7a.24.24,0,0,1-.24.21H19.83a.24.24,0,0,1-.24-.21Z"/><path class="cls-1" d="M28.73,24a4.29,4.29,0,0,1,4.54,4,4.27,4.27,0,0,1-4.54,4,4.26,4.26,0,0,1-4.53-4A4.27,4.27,0,0,1,28.73,24Zm0,6.24A2.4,2.4,0,0,0,31.25,28a2.53,2.53,0,0,0-5,0A2.39,2.39,0,0,0,28.73,30.24Z"/><path class="cls-1" d="M41.49,24a4.57,4.57,0,0,1,3.06,1,.2.2,0,0,1,0,.32l-1,.9a.24.24,0,0,1-.32,0,2.76,2.76,0,0,0-1.7-.57,2.29,2.29,0,1,0,0,4.56,2.86,2.86,0,0,0,1.69-.54.3.3,0,0,1,.33,0l1,.93a.2.2,0,0,1,0,.3A4.68,4.68,0,0,1,41.49,32a4.28,4.28,0,0,1-4.55-4A4.3,4.3,0,0,1,41.49,24Z"/><path class="cls-1" d="M46.07,24.32a.23.23,0,0,1,.24-.21h3.78a2.6,2.6,0,0,1,2.75,2.41A2.5,2.5,0,0,1,51,28.76l1.73,2.82c.09.15,0,.33-.22.33H50.81a.26.26,0,0,1-.21-.1l-1.67-2.95h-.88V31.7a.23.23,0,0,1-.24.21h-1.5a.23.23,0,0,1-.24-.21Zm3.85,3.12a1,1,0,0,0,1-.89.92.92,0,0,0-1-.85H48.05v1.74Z"/><path class="cls-1" d="M54.53,24.32a.23.23,0,0,1,.24-.21H60a.23.23,0,0,1,.24.21v1.22a.23.23,0,0,1-.24.21h-3.5v1.38h2.88a.23.23,0,0,1,.24.21v1.21a.23.23,0,0,1-.24.22H56.49v1.5H60a.23.23,0,0,1,.24.21V31.7a.23.23,0,0,1-.24.21H54.77a.23.23,0,0,1-.24-.21Z"/><path class="cls-1" d="M60.78,31.62l4-7.5A.26.26,0,0,1,65,24h.12a.26.26,0,0,1,.22.12l3.95,7.5c.07.14,0,.29-.22.29h-1.4a.42.42,0,0,1-.44-.28l-.45-.88H63.29l-.45.89a.47.47,0,0,1-.45.27H61C60.81,31.91,60.71,31.76,60.78,31.62ZM66,29.23,65,27.4h0l-1,1.83Z"/><path class="cls-1" d="M71,25.75h-1.8a.23.23,0,0,1-.24-.21V24.32a.23.23,0,0,1,.24-.21h5.6a.23.23,0,0,1,.24.21v1.22a.23.23,0,0,1-.24.21H73V31.7a.24.24,0,0,1-.24.21H71.19A.24.24,0,0,1,71,31.7Z"/><path class="cls-1" d="M76.25,24.32a.23.23,0,0,1,.24-.21H78a.23.23,0,0,1,.24.21V31.7a.23.23,0,0,1-.24.21H76.49a.23.23,0,0,1-.24-.21Z"/><path class="cls-1" d="M84.3,24a4.29,4.29,0,0,1,4.54,4,4.57,4.57,0,0,1-9.07,0A4.28,4.28,0,0,1,84.3,24Zm0,6.24A2.4,2.4,0,0,0,86.82,28a2.53,2.53,0,0,0-5,0A2.39,2.39,0,0,0,84.3,30.24Z"/><path class="cls-1" d="M90.35,24.2a.23.23,0,0,1,.24-.2h.32l5,4.28h0v-4a.23.23,0,0,1,.24-.21h1.51a.23.23,0,0,1,.24.21v7.5a.22.22,0,0,1-.24.2h-.2a.28.28,0,0,1-.16-.06l-5-4.42h0V31.7a.23.23,0,0,1-.24.21h-1.5a.23.23,0,0,1-.24-.21Z"/><path class="cls-1" d="M99.61,30.85l.6-.93a.36.36,0,0,1,.43-.06,4.1,4.1,0,0,0,1.79.61c.5,0,.87-.28.87-.67s-.44-.82-1.3-1.12c-1.09-.38-2.45-1.13-2.45-2.46,0-1.11,1-2.22,2.92-2.22a5.14,5.14,0,0,1,2.7.83.26.26,0,0,1,.07.36l-.64.86c-.09.12-.32.22-.43.14a4.25,4.25,0,0,0-1.81-.67c-.45,0-.79.27-.79.57s.38.73,1.38,1.08,2.54,1,2.54,2.54c0,1.15-1.12,2.31-3,2.31a4.3,4.3,0,0,1-2.84-.86C99.55,31.05,99.51,31,99.61,30.85Z"/><path class="cls-1" d="M4.33,1.41h-4C.06,1.41,0,1.26,0,1V.65A.29.29,0,0,1,.28.32H9.4a.3.3,0,0,1,.28.33v.43a.3.3,0,0,1-.28.33H5.33V17.78a.32.32,0,0,1-.34.33H4.6a.31.31,0,0,1-.27-.33Z"/><path class="cls-1" d="M33.59.39A.31.31,0,0,1,33.9.06h.37L44.45,16h0V.65a.31.31,0,0,1,.28-.33h.42a.31.31,0,0,1,.28.33V18a.32.32,0,0,1-.34.33h-.28s-.19-.07-10.27-16h0V17.78a.31.31,0,0,1-.27.33h-.41a.31.31,0,0,1-.27-.33Z"/><path class="cls-1" d="M54.19.65a.31.31,0,0,1,.25-.33h4.5c4.12,0,7.47,4,7.47,8.87s-3.35,8.92-7.47,8.92h-4.5a.31.31,0,0,1-.25-.33ZM58.77,17c3.71,0,6.58-3.38,6.58-7.83s-2.87-7.78-6.58-7.78H55.19V17Z"/><path class="cls-1" d="M74.09.65a.31.31,0,0,1,.28-.33h8.5a.31.31,0,0,1,.28.33v.43a.31.31,0,0,1-.28.33H75.11v7h6.72a.32.32,0,0,1,.28.34v.43a.31.31,0,0,1-.28.33H75.11V17h7.76a.31.31,0,0,1,.28.33v.41a.31.31,0,0,1-.28.33h-8.5a.31.31,0,0,1-.28-.33Z"/><path class="cls-1" d="M92.85.24A.21.21,0,0,1,93,.06h.23c.11,0,.17.05.21.18l4.37,15.61h.05L102.29.24c0-.13.1-.18.21-.18h.23a.21.21,0,0,1,.19.18l3,17.54c0,.25,0,.33-.24.33h-.51c-.12,0-.23-.13-.25-.28l-2.4-14.89h0L98.21,18.16a.28.28,0,0,1-.29.2h-.09a.24.24,0,0,1-.27-.2L93.27,2.94h0l-2.4,14.89a.3.3,0,0,1-.26.28h-.5c-.2,0-.28-.08-.24-.33Z"/><path class="cls-2" d="M27.6,14.48l1.53,3.27a.46.46,0,0,1-.44.68h-2.9c-.47,0-.68-.16-.92-.65l-.94-2.05Z"/><path class="cls-2" d="M22.36,12.2l-2-4.28h0l-2,4.28-1.57,3.53-.94,2.07a1,1,0,0,1-1,.63H12.06a.46.46,0,0,1-.45-.68L19.8.29A.53.53,0,0,1,20.24,0h.26A.53.53,0,0,1,21,.29L26,11Z"/></g></g></svg>